<svg width="41" height="38" viewBox="0 0 41 38" fill="none" xmlns="http://www.w3.org/2000/svg">
<path d="M20.5454 3.42114C25.8854 3.42114 26.5187 3.44012 28.6287 3.53186C34.0487 3.76595 36.5804 6.20646 36.8271 11.3121C36.9237 13.3129 36.9421 13.9139 36.9421 18.9816C36.9421 24.0508 36.9221 24.6503 36.8271 26.6511C36.5787 31.752 34.0537 34.1972 28.6287 34.4313C26.5187 34.523 25.8887 34.542 20.5454 34.542C15.2054 34.542 14.5721 34.523 12.4637 34.4313C7.03041 34.1956 4.51208 31.744 4.26541 26.6495C4.16874 24.6487 4.14874 24.0492 4.14874 18.98C4.14874 13.9123 4.17041 13.3129 4.26541 11.3105C4.51374 6.20646 7.03874 3.76437 12.4637 3.53028C14.5737 3.44012 15.2054 3.42114 20.5454 3.42114ZM20.5454 0C15.1137 0 14.4337 0.0221433 12.3004 0.11388C5.03708 0.430213 1.00041 4.25468 0.667077 11.1539C0.568743 13.18 0.54541 13.8253 0.54541 18.98C0.54541 24.1347 0.568743 24.7816 0.66541 26.8061C0.998743 33.699 5.02874 37.5298 12.2987 37.8461C14.4337 37.9379 15.1137 37.96 20.5454 37.96C25.9771 37.96 26.6587 37.9379 28.7921 37.8461C36.0487 37.5298 40.0954 33.7053 40.4237 26.8061C40.5221 24.7816 40.5454 24.1347 40.5454 18.98C40.5454 13.8253 40.5221 13.18 40.4254 11.1555C40.0987 4.26892 36.0637 0.431795 28.7937 0.115462C26.6587 0.0221433 25.9771 0 20.5454 0V0ZM20.5454 9.23377C14.8737 9.23377 10.2754 13.5976 10.2754 18.98C10.2754 24.3624 14.8737 28.7278 20.5454 28.7278C26.2171 28.7278 30.8154 24.364 30.8154 18.98C30.8154 13.5976 26.2171 9.23377 20.5454 9.23377ZM20.5454 25.3067C16.8637 25.3067 13.8787 22.4755 13.8787 18.98C13.8787 15.4861 16.8637 12.6533 20.5454 12.6533C24.2271 12.6533 27.2121 15.4861 27.2121 18.98C27.2121 22.4755 24.2271 25.3067 20.5454 25.3067ZM31.2221 6.57183C29.8954 6.57183 28.8204 7.592 28.8204 8.84942C28.8204 10.1068 29.8954 11.127 31.2221 11.127C32.5471 11.127 33.6204 10.1068 33.6204 8.84942C33.6204 7.592 32.5471 6.57183 31.2221 6.57183Z" fill="[#F4EDED]"/>
</svg>
