<svg width="44" height="36" viewBox="0 0 44 36" fill="none" xmlns="http://www.w3.org/2000/svg">
<path d="M43.0804 4.8092C42.5744 2.9172 41.0828 1.4256 39.1908 0.919601C35.7588 4.58956e-07 22 0 22 0C22 0 8.2412 4.58956e-07 4.8092 0.919601C2.9172 1.4256 1.4256 2.9172 0.9196 4.8092C-6.55651e-08 8.2412 0 17.6 0 17.6C0 17.6 -6.55651e-08 26.9588 0.9196 30.3908C1.4256 32.2828 2.9172 33.7744 4.8092 34.2804C8.2412 35.2 22 35.2 22 35.2C22 35.2 35.7588 35.2 39.1908 34.2804C41.085 33.7744 42.5744 32.2828 43.0804 30.3908C44 26.9588 44 17.6 44 17.6C44 17.6 44 8.2412 43.0804 4.8092ZM17.6 23.3156V11.8844C17.6 11.0374 18.5174 10.5094 19.25 10.9318L29.15 16.6474C29.8826 17.0698 29.8826 18.1302 29.15 18.5526L19.25 24.2682C18.5174 24.6928 17.6 24.1626 17.6 23.3156Z" fill="#F4EDED"/>
</svg>
